<svg xmlns="http://www.w3.org/2000/svg" width="96" height="32" viewBox="0 0 96 32">
  <defs>

    <linearGradient id="bodyGrad" x1="0" y1="0" x2="1" y2="0">
      <stop offset="0%"  stop-color="#5c7cff"/>
      <stop offset="60%" stop-color="#8fd3ff"/>
      <stop offset="100%" stop-color="#d9f3ff"/>
    </linearGradient>
    <linearGradient id="beakGrad" x1="0" y1="0" x2="1" y2="0">
      <stop offset="0%"  stop-color="#ffe49a"/>
      <stop offset="100%" stop-color="#ffc85a"/>
    </linearGradient>

    <linearGradient id="featherGrad" x1="0" y1="0" x2="1" y2="0">
      <stop offset="0%"  stop-color="#a5fff2" stop-opacity="0.95"/>
      <stop offset="45%" stop-color="#63e6ff" stop-opacity="0.8"/>
      <stop offset="80%" stop-color="#7e7bff" stop-opacity="0.6"/>
      <stop offset="100%" stop-color="#9b5bff" stop-opacity="0.35"/>
    </linearGradient>
  </defs>


  <g opacity="0.95">

    <path fill="url(#featherGrad)"
          d="M3,16 C8,9 18,6 26,8 L26,24 C18,26 8,23 3,16 Z"/>

    <path fill="url(#featherGrad)" opacity="0.45"
          d="M0,16 C6,5 20,3 28,6 L28,26 C20,29 6,27 0,16 Z"/>
    <path d="M8,14 C14,12 18,12 24,13" stroke="#c9ffff" stroke-opacity="0.5" stroke-width="1.4" fill="none"/>
    <path d="M7,18 C13,19 18,19 24,18" stroke="#b2a6ff" stroke-opacity="0.55" stroke-width="1.2" fill="none"/>
  </g>

  <g transform="translate(0,0)">
    <path d="M26,8 C40,4 58,4 70,8 C78,11 78,21 70,24 C58,28 40,28 26,24 Z"
          fill="url(#bodyGrad)" stroke="#223" stroke-width="1.5" />

    <path d="M46,9 C42,12 42,20 46,23 C52,20 52,12 46,9 Z"
          fill="#a9e6ff" fill-opacity="0.6" stroke="#3a4a66" stroke-opacity="0.4" stroke-width="1"/>

    <path d="M34,11 C46,9 58,10 66,12" stroke="#ffffff" stroke-opacity="0.45" stroke-width="2" fill="none" stroke-linecap="round"/>
    <path d="M34,21 C46,23 58,22 66,20" stroke="#5176ff" stroke-opacity="0.35" stroke-width="2" fill="none" stroke-linecap="round"/>

    <path d="M70,8 L88,16 L70,24 Z" fill="url(#beakGrad)" stroke="#5a3b00" stroke-width="1.5" stroke-linejoin="round"/>

    <path d="M73,14 L84,16" stroke="#fff1c2" stroke-width="1.6" stroke-linecap="round" opacity="0.7"/>
  </g>
</svg>
